<svg id="Layer_1" data-name="Layer 1" xmlns="http://www.w3.org/2000/svg" viewBox="0 0 200.9 158.97"><defs><style>.cls-1{fill:#fa634e;}.cls-2{fill:#f7cf46;}.cls-3{fill:#72dc8a;}.cls-4{fill:#7a31f5;}</style></defs><path d="M138,132h-9.32V158.5h-3.59V132h-9.32v-3.19H138Zm17.1,9.82a14.52,14.52,0,0,1,.82,5.24v1.44H139.78a9.06,9.06,0,0,0,.85,3.8,6.16,6.16,0,0,0,2.44,2.65,7.05,7.05,0,0,0,3.64.91,7.16,7.16,0,0,0,2.43-.39,5,5,0,0,0,1.89-1.16,5.16,5.16,0,0,0,1.23-1.93l3.31.93a7.36,7.36,0,0,1-1.76,3,8.31,8.31,0,0,1-3,2,11.08,11.08,0,0,1-4.06.71,10.38,10.38,0,0,1-5.54-1.43,9.44,9.44,0,0,1-3.58-4,13.61,13.61,0,0,1-1.25-6,13.85,13.85,0,0,1,1.25-6,9.81,9.81,0,0,1,3.51-4.08,9.39,9.39,0,0,1,5.26-1.47,10.43,10.43,0,0,1,3.43.58,8.43,8.43,0,0,1,3.08,1.87A9,9,0,0,1,155.09,141.86Zm-2.65,3.73a7.35,7.35,0,0,0-.75-3.36,5.73,5.73,0,0,0-2.11-2.33,6,6,0,0,0-3.22-.85,6.15,6.15,0,0,0-3.53,1,6.68,6.68,0,0,0-2.28,2.61,7.61,7.61,0,0,0-.76,2.93Zm13.41-5.51a6,6,0,0,1,3.49-1,5.27,5.27,0,0,1,3.6,1.17,5.38,5.38,0,0,1,1.73,2.71h3.42a7.62,7.62,0,0,0-1.49-3.65,8.19,8.19,0,0,0-3.09-2.44,10.08,10.08,0,0,0-4.23-.86,9.41,9.41,0,0,0-5.26,1.47,9.79,9.79,0,0,0-3.5,4.06,13.59,13.59,0,0,0-1.25,6,13.79,13.79,0,0,0,1.21,5.92,9.33,9.33,0,0,0,8.86,5.55,9.67,9.67,0,0,0,4.32-.92,7.89,7.89,0,0,0,4.43-6h-3.42a5.09,5.09,0,0,1-1.07,2.08,4.9,4.9,0,0,1-1.84,1.33,6.07,6.07,0,0,1-2.42.47,6,6,0,0,1-3.52-1.06,6.78,6.78,0,0,1-2.32-3,11.41,11.41,0,0,1-.82-4.48,10.69,10.69,0,0,1,.84-4.4A6.73,6.73,0,0,1,165.85,140.08Zm34.1-.43a6.24,6.24,0,0,0-2.65-2.77,8.43,8.43,0,0,0-4-.9,7.58,7.58,0,0,0-4.19,1,6.29,6.29,0,0,0-2.36,2.74h-.29V128.85h-3.41V158.5h3.41V145.13a6.78,6.78,0,0,1,.76-3.31,5.27,5.27,0,0,1,2.09-2.07,6.27,6.27,0,0,1,3-.7,5,5,0,0,1,3.79,1.45,5.77,5.77,0,0,1,1.37,4.1v13.9h3.41V144.37A10.25,10.25,0,0,0,200,139.65Zm-118-6.1a7.36,7.36,0,0,1,1.1,4v2.55a7.36,7.36,0,0,1-1.1,4,7.09,7.09,0,0,1-1.41,1.59,8,8,0,0,1-1.7,1.06,8.53,8.53,0,0,1-1.45.52l5.66,11.15H77.7l-5.45-10.74H67.18V158.5H61.8V130H74.2c.22,0,.43,0,.63,0a9.93,9.93,0,0,1,4,.93A6.56,6.56,0,0,1,80.55,132,6.35,6.35,0,0,1,82,133.55Zm-4.28,5.12a4.48,4.48,0,0,0-.26-1.56,3.58,3.58,0,0,0-.82-1.19,4.15,4.15,0,0,0-3-1H67.18v8h6.44a4.14,4.14,0,0,0,3-1,3.5,3.5,0,0,0,.82-1.17,4.54,4.54,0,0,0,.26-1.55Zm-62,16.17h-.73L10,130H0V158.5H5.22V133.92H6l4.89,24.58h8.89l4.89-24.58h.74V158.5h5.22V130h-10ZM43,146.56H54.79v-4.89H43v-6.81h13V130H37.59V158.5H56.18v-4.89H43ZM94.58,130H89.2V158.5h18.42v-4.89h-13Z"/><path d="M66.71,57.25C62.27,55.49,56.93,55,48.45,55V45c12.5,0,19.9,1.42,26.14,5a32.35,32.35,0,0,1,3.68,2.42q1.59,1.2,3.18,2.64a39.85,39.85,0,0,1-8.86,5.62.61.61,0,0,0-.14-.1,6.87,6.87,0,0,0-.66-.48q-.9-.66-1.8-1.2c-.2-.12-.4-.24-.6-.34A22.07,22.07,0,0,0,66.71,57.25Zm65.92,32.57-1.1-.06a43.14,43.14,0,0,1-16.4-3.82c-.82-.38-1.62-.82-2.44-1.28s-1.74-1-2.62-1.62c-.4-.26-.78-.54-1.18-.82s-.9-.64-1.36-1-1.2-.94-1.82-1.46a82.36,82.36,0,0,1-7.26-6.86c-.24-.24-.46-.48-.7-.74l-2-2.18-1.8-2A69.09,69.09,0,0,1,85.81,74c.86.92,1.74,1.88,2.68,2.9.62.68,1.26,1.38,1.94,2.1l.76.82h0a87.82,87.82,0,0,0,7.24,6.92c1.06.92,2.12,1.78,3.16,2.56.88.66,1.74,1.28,2.6,1.86.42.3.84.58,1.28.84s1.06.68,1.6,1,1.06.62,1.58.9,1.06.58,1.58.82,1,.5,1.56.74l1.1.48,1.12.46c.38.14.74.28,1.1.4.56.2,1.12.38,1.66.56s1.12.34,1.68.5c0,0,0,0,0,0q1.08.3,2.16.54a53.18,53.18,0,0,0,5.34.92c1.52.2,3.08.34,4.64.44.92.06,1.84.12,2.76.16l1,0v-10a4.87,4.87,0,0,1-.54,0ZM64.49,10.18c.88,0,1.76.1,2.62.18a3,3,0,0,1,.42,0l1.24.12c1.38.16,2.72.36,4,.62.44.08.88.18,1.32.28s.86.2,1.3.32l1.28.36a36.63,36.63,0,0,1,5.06,2c.74.36,1.48.74,2.24,1.16a45.33,45.33,0,0,1,4,2.54h0l0,0c.44.3.86.62,1.3,1,.62.46,1.22.94,1.84,1.46a77.53,77.53,0,0,1,7.26,6.88c.24.24.46.48.7.74l2,2.18c.9,1,1.74,1.88,2.56,2.76a80,80,0,0,1,7.72-6.34c-.94-1-1.94-2.14-3-3.3-.62-.68-1.28-1.4-2-2.12-.26-.28-.5-.54-.76-.8a95.88,95.88,0,0,0-7.26-7c-1.08-.9-2.12-1.76-3.18-2.54A49.15,49.15,0,0,0,89.65,7c-.36-.24-.74-.44-1.1-.64A47.94,47.94,0,0,0,69.65.56,11.79,11.79,0,0,0,68.47.44c-.42,0-.84-.08-1.28-.1s-1-.08-1.48-.1C64.65.16,63.57.1,62.45.08v10c.58,0,1.18,0,1.74.06A1.51,1.51,0,0,1,64.49,10.18Zm64,31.73a9.83,9.83,0,0,1-.9-.48,18.84,18.84,0,0,1-1.68-1c-.46-.32-.92-.64-1.4-1a48.56,48.56,0,0,0-8.18,6.24,1.4,1.4,0,0,0,.2.16c.3.26.6.52.9.74s.84.68,1.26,1A35.51,35.51,0,0,0,122.33,50c6.22,3.58,13.62,5,26.12,5V45c-8.46,0-13.8-.5-18.22-2.28C129.63,42.47,129,42.21,128.45,41.91ZM67.73,76.67c1.38-.24,2.76-.54,4.18-.92a40.62,40.62,0,0,0,7.5-2.86c1.18-.58,2.38-1.22,3.62-2,1-.58,2-1.2,3-1.9l.8-.54c1.42-1,2.9-2.16,4.42-3.42,1-.8,2-1.68,3-2.62l1.34-1.24c-1.58-1.6-3.22-3.34-4.9-5.2-.66-.72-1.28-1.42-1.92-2.1-.46.46-.92.9-1.38,1.3-.22.2-.42.4-.64.58s-.22.18-.32.28v0c-.32.26-.64.54-.94.8s-.76.64-1.12,1a.78.78,0,0,0-.2.16h0c-.74.62-1.46,1.16-2.16,1.68A46.88,46.88,0,0,1,76.85,63c-.32.18-.66.36-1,.52s-.72.38-1.08.54c-.52.26-1,.48-1.52.68s-.9.38-1.36.54h0c-.66.24-1.3.46-2,.66l-1.84.48a41.39,41.39,0,0,1-5.86.86c-.58,0-1.16.08-1.76.1-1.28.06-2.6.08-3.94.08s-2.5,0-3.8,0-2.82,0-4.28,0v10c1.42,0,2.82,0,4.16,0s2.68,0,4,0c.46,0,.92,0,1.4,0,.92,0,1.84,0,2.78-.06.54,0,1.1,0,1.64-.08l1.14-.1C64.93,77.09,66.33,76.91,67.73,76.67ZM142,22.45c-1.66-.06-3.26-.1-4.8-.1-.86,0-1.7,0-2.54,0-.56,0-1.12.06-1.66.1a5.39,5.39,0,0,0-.8.06q-1.29.09-2.58.3c-.34.06-.68.1-1,.18-.66.12-1.28.24-1.92.4-.32.08-.62.16-.94.26s-.74.2-1.12.34-.72.22-1.08.36a36.45,36.45,0,0,0-5.94,2.78c-.58.34-1.18.7-1.76,1.1-.26.16-.52.34-.78.52s-.58.4-.88.6c-.6.42-1.22.86-1.84,1.34-.34.26-.68.52-1,.82-1.54,1.2-3.16,2.6-4.86,4.16-.94.86-1.92,1.8-2.92,2.78-.76.74-1.52,1.52-2.3,2.32.92,1,1.9,2.06,2.88,3.16q2,2.28,3.9,4.2h0c.36-.38.72-.76,1.08-1.12l.68-.68c.22-.22.44-.46.66-.66v0c.12-.1.22-.22.32-.3a2.27,2.27,0,0,1,.32-.3c.2-.22.4-.42.62-.62.56-.54,1.1-1.06,1.64-1.54v0a67.18,67.18,0,0,1,6.08-5c.32-.24.62-.44.92-.64s.6-.4.9-.6h0c.42-.28.82-.52,1.22-.74s1-.54,1.42-.78.7-.36,1-.52h0c.46-.22.92-.4,1.36-.58s1.12-.4,1.66-.58.92-.26,1.38-.38,1.06-.22,1.6-.32a22.46,22.46,0,0,1,2.84-.34q.63-.06,1.26-.06c.3,0,.6,0,.9,0s.64,0,1,0c1.5,0,3.06.06,4.74.12,2.1.06,4.36.14,6.8.14v-10C146.13,22.59,144,22.51,142,22.45ZM60,32.33c.32,0,.64,0,1,0s.6,0,.9,0,.84,0,1.26.06c.94.06,1.88.18,2.8.32.56.1,1.1.22,1.64.34s.92.24,1.38.38,1.1.36,1.66.58l.68.28c.22.1.46.18.68.3,2.12-1.9,4.44-4.32,7.34-7.46L78,26.47c-.38-.2-.76-.4-1.14-.58s-.92-.44-1.36-.64-.82-.34-1.22-.5-1.06-.4-1.58-.58-1-.34-1.54-.48c-.32-.08-.64-.18-.94-.24-.66-.16-1.3-.3-1.94-.42-.4-.08-.8-.14-1.2-.2-.8-.12-1.6-.22-2.42-.28l-.58-.06h0l-.24,0-.56,0c-1.18-.08-2.36-.1-3.58-.1-1.52,0-3.12,0-4.76.1-2,.06-4.14.14-6.48.14v10c2.46,0,4.7-.08,6.82-.14C56.93,32.39,58.51,32.33,60,32.33Zm45.26,18.74c-.68-.68-1.36-1.4-2-2.12s-1.4-1.52-2.12-2.32c-.9-1-1.78-2-2.66-2.9v0c-.94-1-1.86-2-2.76-2.9-.18-.18-.34-.36-.52-.52s-.54-.56-.82-.84l-1-1c-2.48,2.68-4.74,5.08-6.92,7.2.44.44.88.88,1.34,1.36l.72.72.38.4,1,1c.56.6,1.14,1.22,1.72,1.86s1.34,1.46,2,2.24c1.64,1.82,3.24,3.52,4.8,5.08,1,1,1.9,1.9,2.84,2.78.44.44.9.84,1.34,1.26,2.48-2.7,4.72-5.1,6.86-7.24-.46-.4-.92-.84-1.38-1.3C107.19,53,106.23,52.07,105.27,51.07Zm35.1,16.38c-.44,0-.88,0-1.3,0s-.88,0-1.3,0-.86,0-1.28,0l-1.26-.06c-.84-.06-1.66-.12-2.48-.24a12.35,12.35,0,0,1-1.24-.16c-.42-.06-.82-.12-1.24-.2-.72-.14-1.46-.3-2.2-.48s-1.46-.4-2.2-.66l-.86-.3h0c-2.16,1.92-4.52,4.4-7.5,7.62,0,0,.06,0,.08,0,.58.28,1.18.56,1.76.82l.1,0c.3.12.6.26.92.38s.52.22.78.32l.12,0,.84.3c.44.18.9.32,1.34.46s1.08.34,1.6.48.92.24,1.36.34.92.2,1.38.3.94.18,1.4.26c1.16.2,2.3.36,3.44.46.58.06,1.18.12,1.76.16h.12c.54,0,1.1.06,1.66.08q1.38.06,2.76.06c.48,0,.94,0,1.4,0,1.32,0,2.64,0,4,0s2.74,0,4.16,0v-10c-1.46,0-2.88,0-4.28,0S141.59,67.45,140.37,67.45ZM93.19,32.79,95.73,30a79.59,79.59,0,0,0-7.26-6.88c-1.06,1.14-2.06,2.22-3,3.28l-.24.28c-.88.94-1.7,1.84-2.48,2.7-2.7,2.92-5,5.32-7.06,7.28a37.54,37.54,0,0,1-3.24,2.74c-.48.36-.94.68-1.4,1a18.84,18.84,0,0,1-1.68,1,9.83,9.83,0,0,1-.9.48c-.58.3-1.18.56-1.78.8a35.87,35.87,0,0,1,11.58,4.84c.42-.32.84-.64,1.26-1s.6-.48.9-.74a1.4,1.4,0,0,0,.2-.16q.51-.42,1-.9c.4-.34.8-.72,1.2-1.1.24-.24.48-.48.74-.72l0,0c2.14-2.06,4.38-4.46,6.9-7.18l2.1-2.3C92.79,33.23,93,33,93.19,32.79Zm15.7-15a40.46,40.46,0,0,1,7.5-4.26,26.16,26.16,0,0,1,2.52-1,37.22,37.22,0,0,1,5.18-1.38c.46-.1.94-.18,1.42-.26.86-.14,1.72-.26,2.62-.36.46-.06.94-.1,1.4-.14,1-.1,2.12-.16,3.2-.2.56,0,1.14-.06,1.72-.06V.1c-2.06.06-4.06.16-6,.34-1.58.14-3.12.34-4.64.58-1.06.18-2.14.38-3.2.64s-1.88.46-2.82.74a48.63,48.63,0,0,0-16.14,8.32A94.21,94.21,0,0,1,108.89,17.76ZM88,82.24c-.4.28-.8.56-1.18.8-.84.58-1.68,1.1-2.5,1.56s-1.78,1-2.66,1.38A35.55,35.55,0,0,1,78,87.48c-.86.3-1.7.56-2.56.78s-1.74.42-2.62.6c-1,.2-2.08.36-3.16.5s-2.2.26-3.34.34-2.54.16-3.86.2v10l1,0c1,0,2-.1,3-.16s1.74-.14,2.58-.22l.18,0c.6-.06,1.18-.12,1.76-.2L73,99h0l1-.18c.34-.06.68-.12,1-.2.7-.14,1.42-.28,2.12-.46a.28.28,0,0,1,.12,0l1.12-.3c1.12-.3,2.22-.66,3.34-1.06.38-.12.74-.26,1.1-.4.74-.3,1.48-.6,2.22-.94.52-.24,1-.48,1.56-.74s1.06-.54,1.58-.82,1-.58,1.56-.88,1.08-.66,1.62-1,.86-.54,1.28-.84c.86-.58,1.74-1.2,2.6-1.86A97.57,97.57,0,0,1,88,82.24Zm17.68-17.19-1.36,1.48c-.44.48-.88,1-1.36,1.46s-1.16,1.28-1.78,2a74.66,74.66,0,0,0,7.24,6.88c.94-1,1.84-2,2.66-2.9.22-.22.42-.44.6-.64.76-.84,1.5-1.62,2.18-2.38.34-.38.68-.74,1-1.1l1.9-2c.92-1,1.8-1.88,2.62-2.7l.7-.7.92-.88c1.14-1.08,2.22-2,3.28-2.84a.61.61,0,0,1,.14-.1,6.87,6.87,0,0,1,.66-.48c.2-.16.42-.3.64-.46.4-.28.8-.52,1.2-.78s.7-.4,1.06-.58.5-.26.74-.38c.48-.22,1-.44,1.44-.64a36,36,0,0,1-11.56-4.84q-1.59,1.2-3.18,2.64c-1,.84-1.92,1.76-2.9,2.76l0,0c-1.34,1.32-2.72,2.76-4.2,4.36-.62.66-1.28,1.38-1.94,2.1Z"/><rect class="cls-1" x="48.45" width="10" height="10"/><rect class="cls-2" x="138.45" width="10" height="10"/><rect class="cls-3" x="48.45" y="90" width="10" height="10"/><rect class="cls-4" x="138.45" y="90" width="10" height="10"/></svg>