<svg id="Layer_1" data-name="Layer 1" xmlns="http://www.w3.org/2000/svg" viewBox="0 0 271.58 50"><defs><style>.cls-1{fill:#fa634e;}.cls-2{fill:#f7cf46;}.cls-3{fill:#72dc8a;}.cls-4{fill:#7a31f5;}</style></defs><path d="M208.68,13.36h-9.33V39.82h-3.59V13.36h-9.32V10.18h22.24Zm17.09,9.82a14.52,14.52,0,0,1,.82,5.24v1.44H210.46a9.22,9.22,0,0,0,.85,3.8,6.16,6.16,0,0,0,2.44,2.65,7.1,7.1,0,0,0,3.64.91,7.52,7.52,0,0,0,2.44-.38,5.3,5.3,0,0,0,1.89-1.16A5.2,5.2,0,0,0,223,33.74l3.3.93a7.34,7.34,0,0,1-1.75,2.95,8.5,8.5,0,0,1-3.05,2,11.3,11.3,0,0,1-4.06.7,10.38,10.38,0,0,1-5.54-1.43,9.44,9.44,0,0,1-3.58-4,13.61,13.61,0,0,1-1.25-6,13.85,13.85,0,0,1,1.25-6,9.88,9.88,0,0,1,3.51-4.08A9.39,9.39,0,0,1,217,17.3a10.43,10.43,0,0,1,3.43.58,8.43,8.43,0,0,1,3.08,1.87A9,9,0,0,1,225.77,23.18Zm-2.65,3.73a7.35,7.35,0,0,0-.75-3.36,5.73,5.73,0,0,0-2.11-2.33,5.93,5.93,0,0,0-3.22-.85,6.15,6.15,0,0,0-3.53,1A6.72,6.72,0,0,0,211.23,24a7.52,7.52,0,0,0-.76,2.92Zm13.41-5.51a6,6,0,0,1,3.49-1,5.22,5.22,0,0,1,3.6,1.18,5.31,5.31,0,0,1,1.73,2.7h3.42a7.66,7.66,0,0,0-1.49-3.65,8.09,8.09,0,0,0-3.09-2.43A9.92,9.92,0,0,0,240,17.3a9.42,9.42,0,0,0-5.27,1.47,9.76,9.76,0,0,0-3.5,4.07,13.52,13.52,0,0,0-1.25,6,13.79,13.79,0,0,0,1.21,5.92,10.05,10.05,0,0,0,13.19,4.63,7.91,7.91,0,0,0,4.42-6h-3.42a5.09,5.09,0,0,1-1.07,2.08,4.82,4.82,0,0,1-1.84,1.33,6.07,6.07,0,0,1-2.42.47,5.91,5.91,0,0,1-3.52-1.06,6.78,6.78,0,0,1-2.32-3,11.41,11.41,0,0,1-.81-4.48,10.7,10.7,0,0,1,.83-4.4A6.73,6.73,0,0,1,236.53,21.4ZM270.64,21A6.32,6.32,0,0,0,268,18.2a8.43,8.43,0,0,0-4-.9,7.58,7.58,0,0,0-4.19,1,6.35,6.35,0,0,0-2.36,2.74h-.29V10.18h-3.41V39.82h3.41V26.45a6.74,6.74,0,0,1,.76-3.3A5.14,5.14,0,0,1,260,21.08a6.16,6.16,0,0,1,3-.71,5,5,0,0,1,3.79,1.45,5.78,5.78,0,0,1,1.37,4.11V39.82h3.41V25.69A10.38,10.38,0,0,0,270.64,21Zm-118-6.1a7.45,7.45,0,0,1,1.1,4v2.55a7.45,7.45,0,0,1-1.1,4,7.14,7.14,0,0,1-1.42,1.59,8.2,8.2,0,0,1-1.69,1.06,8.64,8.64,0,0,1-1.46.52l5.67,11.15h-5.39l-5.45-10.74h-5.07V39.82h-5.38V11.28h12.4c.23,0,.43,0,.64,0a10,10,0,0,1,4,.93,6.68,6.68,0,0,1,1.67,1.06A6.57,6.57,0,0,1,152.67,14.87ZM148.38,20a4.52,4.52,0,0,0-.26-1.56,3.43,3.43,0,0,0-.82-1.19,4.14,4.14,0,0,0-3-1h-6.45v8h6.45a4.14,4.14,0,0,0,3-1,3.27,3.27,0,0,0,.82-1.17,4.54,4.54,0,0,0,.26-1.55Zm-62,16.17H85.6L80.67,11.29h-10V39.82H75.9V15.24h.73l4.9,24.58h8.88l4.9-24.58H96V39.82h5.22V11.29h-10Zm27.31-8.28h11.82V23H113.65V16.18h13V11.29H108.27V39.82h18.59V34.93H113.65Zm51.61-16.59h-5.38V39.82h18.43V34.93H165.26Z"/><path d="M9.13,28.63C6.91,27.75,4.24,27.5,0,27.5v-5c6.25,0,10,.71,13.07,2.5a16.18,16.18,0,0,1,1.84,1.21q.79.6,1.59,1.32a19.92,19.92,0,0,1-4.43,2.81L12,30.29a3.43,3.43,0,0,0-.33-.24q-.45-.33-.9-.6l-.3-.17A11,11,0,0,0,9.13,28.63Zm33,16.28-.55,0A21.57,21.57,0,0,1,33.34,43c-.41-.19-.81-.41-1.22-.64s-.87-.52-1.31-.81l-.59-.41c-.23-.16-.45-.32-.68-.5s-.6-.47-.91-.73A41.18,41.18,0,0,1,25,36.45l-.35-.37-1-1.09-.9-1a34.54,34.54,0,0,1-4.06,3L20,38.43l1,1,.38.41h0A43.91,43.91,0,0,0,25,43.35c.53.46,1.06.89,1.58,1.28s.87.64,1.3.93c.21.15.42.29.64.42s.53.34.8.49.53.31.79.45.53.29.79.41l.78.37.55.24.56.23.55.2.83.28.84.25h0q.54.15,1.08.27a26.59,26.59,0,0,0,2.67.46c.76.1,1.54.17,2.32.22l1.38.08H43V45h-.27ZM8,5.09c.44,0,.88,0,1.31.09l.21,0,.62.06c.69.08,1.36.18,2,.31l.66.14.65.16.64.18a18.31,18.31,0,0,1,2.53,1c.37.18.74.37,1.12.58a22.67,22.67,0,0,1,2,1.27h0l0,0c.22.15.43.31.65.48s.61.47.92.73A38.77,38.77,0,0,1,25,13.55l.35.37,1,1.09,1.28,1.38a40,40,0,0,1,3.86-3.17c-.47-.52-1-1.07-1.51-1.65l-1-1.06-.38-.4A47.94,47.94,0,0,0,25,6.63c-.54-.45-1.06-.88-1.59-1.27A24.57,24.57,0,0,0,20.6,3.48c-.18-.12-.37-.22-.55-.32A24,24,0,0,0,10.6.28,5.9,5.9,0,0,0,10,.22l-.64,0c-.24,0-.49,0-.74-.05C8.1.08,7.56.05,7,0v5c.29,0,.59,0,.87,0ZM40,21l-.45-.24a9.42,9.42,0,0,1-.84-.51l-.7-.5a24.28,24.28,0,0,0-4.09,3.12l.1.08c.15.13.3.26.45.37s.42.34.63.5A17.75,17.75,0,0,0,36.94,25c3.11,1.79,6.81,2.5,13.06,2.5v-5c-4.23,0-6.9-.25-9.11-1.14C40.59,21.24,40.29,21.11,40,21ZM9.64,38.34c.69-.12,1.38-.27,2.09-.46a20.31,20.31,0,0,0,3.75-1.43c.59-.29,1.19-.61,1.81-1s1-.6,1.49-1l.4-.27c.71-.51,1.45-1.08,2.21-1.71.49-.4,1-.84,1.51-1.31l.67-.62c-.79-.8-1.61-1.67-2.45-2.6-.33-.36-.64-.71-1-1.05-.23.23-.46.45-.69.65l-.32.29L19,28h0l-.47.4-.56.48a.39.39,0,0,0-.1.08h0c-.37.31-.73.58-1.08.84A23.44,23.44,0,0,1,14.2,31.5l-.49.26-.54.27c-.26.13-.51.24-.76.34s-.45.19-.68.27h0c-.33.12-.65.23-1,.33l-.92.24a20.7,20.7,0,0,1-2.93.43l-.88,0c-.64,0-1.3,0-2,0l-1.9,0L0,33.69v5l2.08,0,2,0h.7l1.39,0,.82,0,.57,0C8.24,38.55,8.94,38.46,9.64,38.34ZM46.77,11.23c-.83,0-1.63-.05-2.4-.05l-1.27,0-.83.05a2.69,2.69,0,0,0-.4,0q-.65,0-1.29.15l-.51.09c-.33.06-.64.12-1,.2l-.47.13c-.19.05-.37.1-.56.17l-.54.18a18.23,18.23,0,0,0-3,1.39c-.29.17-.59.35-.88.55l-.39.26c-.15.09-.29.2-.44.3s-.61.43-.92.67l-.52.41c-.77.6-1.58,1.3-2.43,2.08-.47.43-1,.9-1.46,1.39s-.76.76-1.15,1.16c.46.5.95,1,1.44,1.58q1,1.14,1.95,2.1h0l.54-.56.34-.34.33-.33h0l.16-.15a1.14,1.14,0,0,1,.16-.15l.31-.31c.28-.27.55-.53.82-.77h0a33.59,33.59,0,0,1,3-2.5l.46-.32.45-.3h0c.21-.14.41-.26.61-.37l.71-.39.52-.26h0c.23-.11.46-.2.68-.29s.56-.2.83-.29l.69-.19.8-.16a11.23,11.23,0,0,1,1.42-.17q.31,0,.63,0h.93c.75,0,1.53,0,2.37.06,1,0,2.18.07,3.4.07v-5C48.84,11.3,47.77,11.26,46.77,11.23Zm-41,4.94h.93q.32,0,.63,0c.47,0,.94.09,1.4.16l.82.17.69.19c.27.09.55.18.83.29l.34.14c.11,0,.23.09.34.15,1.06-.95,2.22-2.16,3.67-3.73l-.64-.35L14.22,13c-.23-.12-.46-.22-.68-.32l-.61-.25-.79-.29c-.26-.09-.51-.17-.77-.24l-.47-.12-1-.21-.6-.1c-.4-.06-.8-.11-1.21-.14l-.29,0H7.41c-.59,0-1.18-.05-1.79-.05s-1.56,0-2.38.05c-1,0-2.07.07-3.24.07v5c1.23,0,2.35,0,3.41-.07C4.24,16.2,5,16.17,5.78,16.17Zm22.63,9.37c-.34-.34-.68-.7-1-1.06s-.7-.76-1.06-1.16-.89-1-1.33-1.45h0c-.47-.51-.93-1-1.38-1.45l-.26-.26L23,19.73l-.48-.48c-1.24,1.34-2.37,2.54-3.46,3.6l.67.68.36.36.19.2.5.52.86.93,1,1.12c.82.91,1.62,1.76,2.4,2.54.48.49.95.95,1.42,1.39.22.22.45.42.67.63,1.24-1.35,2.36-2.55,3.43-3.62-.23-.2-.46-.42-.69-.65C29.37,26.52,28.89,26,28.41,25.54ZM46,33.73h-1.3l-.64,0-.63,0c-.42,0-.83-.06-1.24-.12a6.17,6.17,0,0,1-.62-.08l-.62-.1-1.1-.24c-.36-.1-.73-.2-1.1-.33l-.43-.15h0c-1.08,1-2.26,2.2-3.75,3.81l0,0,.88.41.05,0,.46.19.39.16.06,0,.42.15c.22.09.45.16.67.23l.8.24.68.17.69.15.7.13c.58.1,1.15.18,1.72.23l.88.08H43l.83,0q.69,0,1.38,0h.7l2,0,2.08,0v-5l-2.14,0ZM22.37,16.4,23.64,15A39.79,39.79,0,0,0,20,11.57L18.5,13.21l-.12.14L17.14,14.7c-1.35,1.46-2.48,2.66-3.53,3.64A18.77,18.77,0,0,1,12,19.71l-.7.5a9.42,9.42,0,0,1-.84.51A4.92,4.92,0,0,1,10,21c-.29.15-.59.28-.89.4a17.94,17.94,0,0,1,5.79,2.42c.21-.16.42-.32.63-.5s.3-.24.45-.37l.1-.08q.26-.21.51-.45c.2-.17.4-.36.6-.55l.37-.36h0c1.07-1,2.19-2.23,3.45-3.59l1.05-1.15Zm7.85-7.52A20.23,20.23,0,0,1,34,6.75a13.08,13.08,0,0,1,1.26-.49,18.61,18.61,0,0,1,2.59-.69l.71-.13c.43-.07.86-.13,1.31-.18l.7-.07c.52-.05,1.06-.08,1.6-.1.28,0,.57,0,.86,0v-5c-1,0-2,.08-3,.17-.79.07-1.56.17-2.32.29-.53.09-1.07.19-1.6.32s-.94.23-1.41.37a24.31,24.31,0,0,0-8.07,4.16A47.11,47.11,0,0,1,30.22,8.88ZM19.78,41.12l-.59.4c-.42.29-.84.55-1.25.78s-.89.49-1.33.69a17.78,17.78,0,0,1-1.84.75c-.43.15-.85.28-1.28.39s-.87.21-1.31.3-1,.18-1.58.25-1.1.13-1.67.17S7.66,44.93,7,45v5l.49,0L9,49.86l1.29-.11h.09l.88-.1,1-.15h0l.49-.09.51-.1c.35-.07.71-.14,1.06-.23l.06,0L15,48.9c.56-.15,1.11-.33,1.67-.53l.55-.2c.37-.15.74-.3,1.11-.47l.78-.37c.27-.13.53-.27.79-.41l.78-.44.81-.5c.22-.13.43-.27.64-.42.43-.29.87-.6,1.3-.93A48.78,48.78,0,0,1,19.78,41.12Zm8.84-8.59-.68.74-.68.73c-.28.32-.58.64-.89,1A37.33,37.33,0,0,0,30,38.42c.47-.5.92-1,1.33-1.45l.3-.32,1.09-1.19.51-.55,1-1c.46-.49.9-.94,1.31-1.35l.35-.35.46-.44c.57-.54,1.11-1,1.64-1.42l.07-.05a3.43,3.43,0,0,1,.33-.24l.32-.23.6-.39.53-.29.37-.19.72-.32a18,18,0,0,1-5.78-2.42q-.8.6-1.59,1.32c-.48.42-1,.88-1.45,1.38h0c-.67.66-1.36,1.38-2.1,2.18l-1,1Z"/><rect class="cls-1" width="5" height="5"/><rect class="cls-2" x="45" width="5" height="5"/><rect class="cls-3" y="45" width="5" height="5"/><rect class="cls-4" x="45" y="45" width="5" height="5"/></svg>