<svg id="Layer_1" data-name="Layer 1" xmlns="http://www.w3.org/2000/svg" viewBox="0 0 200.9 108.97"><defs><style>.cls-1{fill:#fa634e;}.cls-2{fill:#f7cf46;}.cls-3{fill:#72dc8a;}.cls-4{fill:#7a31f5;}</style></defs><path d="M138,82h-9.32V108.5h-3.59V82h-9.32V78.85H138Zm17.1,9.82a14.52,14.52,0,0,1,.82,5.24v1.44H139.78a9.06,9.06,0,0,0,.85,3.8,6.16,6.16,0,0,0,2.44,2.65,7.05,7.05,0,0,0,3.64.91,7.16,7.16,0,0,0,2.43-.39,5,5,0,0,0,1.89-1.16,5.16,5.16,0,0,0,1.23-1.93l3.31.93a7.36,7.36,0,0,1-1.76,3,8.31,8.31,0,0,1-3,2,11.08,11.08,0,0,1-4.06.71,10.38,10.38,0,0,1-5.54-1.43,9.44,9.44,0,0,1-3.58-4,13.61,13.61,0,0,1-1.25-6,13.85,13.85,0,0,1,1.25-6,9.81,9.81,0,0,1,3.51-4.08A9.39,9.39,0,0,1,146.36,86a10.43,10.43,0,0,1,3.43.58,8.43,8.43,0,0,1,3.08,1.87A9,9,0,0,1,155.09,91.86Zm-2.65,3.73a7.35,7.35,0,0,0-.75-3.36,5.73,5.73,0,0,0-2.11-2.33,6,6,0,0,0-3.22-.85,6.15,6.15,0,0,0-3.53,1,6.68,6.68,0,0,0-2.28,2.61,7.61,7.61,0,0,0-.76,2.93Zm13.41-5.51a6,6,0,0,1,3.49-1,5.27,5.27,0,0,1,3.6,1.17,5.38,5.38,0,0,1,1.73,2.71h3.42a7.62,7.62,0,0,0-1.49-3.65,8.19,8.19,0,0,0-3.09-2.44,10.08,10.08,0,0,0-4.23-.86A9.41,9.41,0,0,0,164,87.45a9.79,9.79,0,0,0-3.5,4.06,13.59,13.59,0,0,0-1.25,6,13.79,13.79,0,0,0,1.21,5.92,9.33,9.33,0,0,0,8.86,5.55,9.67,9.67,0,0,0,4.32-.92,7.89,7.89,0,0,0,4.43-6h-3.42a5.09,5.09,0,0,1-1.07,2.08,4.9,4.9,0,0,1-1.84,1.33,6.07,6.07,0,0,1-2.42.47,5.91,5.91,0,0,1-3.52-1.06,6.78,6.78,0,0,1-2.32-3,11.41,11.41,0,0,1-.82-4.48,10.69,10.69,0,0,1,.84-4.4A6.73,6.73,0,0,1,165.85,90.08Zm34.1-.43a6.24,6.24,0,0,0-2.65-2.77,8.43,8.43,0,0,0-4-.9,7.58,7.58,0,0,0-4.19,1,6.29,6.29,0,0,0-2.36,2.74h-.29V78.85h-3.41V108.5h3.41V95.13a6.78,6.78,0,0,1,.76-3.31,5.27,5.27,0,0,1,2.09-2.07,6.27,6.27,0,0,1,3-.7,5,5,0,0,1,3.79,1.45,5.77,5.77,0,0,1,1.37,4.1v13.9h3.41V94.37A10.25,10.25,0,0,0,200,89.65ZM82,83.55a7.36,7.36,0,0,1,1.1,4v2.55a7.36,7.36,0,0,1-1.1,4,7.09,7.09,0,0,1-1.41,1.59,8,8,0,0,1-1.7,1.06,8.53,8.53,0,0,1-1.45.52l5.66,11.15H77.7L72.25,97.76H67.18V108.5H61.8V80H74.2c.22,0,.43,0,.63,0a9.93,9.93,0,0,1,4,.93A6.56,6.56,0,0,1,80.55,82,6.35,6.35,0,0,1,82,83.55ZM77.7,88.67a4.48,4.48,0,0,0-.26-1.56,3.58,3.58,0,0,0-.82-1.19,4.15,4.15,0,0,0-3-1H67.18v8h6.44a4.14,4.14,0,0,0,3-1,3.5,3.5,0,0,0,.82-1.17,4.54,4.54,0,0,0,.26-1.55Zm-62,16.17h-.73L10,80H0V108.5H5.22V83.92H6l4.89,24.58h8.89l4.89-24.58h.74V108.5h5.22V80h-10ZM43,96.56H54.79V91.67H43V84.86h13V80H37.59V108.5H56.18v-4.89H43ZM94.58,80H89.2V108.5h18.42v-4.89h-13Z"/><path d="M82.58,28.63c-2.22-.88-4.89-1.13-9.13-1.13v-5c6.25,0,10,.71,13.07,2.5a16.18,16.18,0,0,1,1.84,1.21q.8.6,1.59,1.32a19.92,19.92,0,0,1-4.43,2.81l-.07-.05a3.43,3.43,0,0,0-.33-.24q-.45-.33-.9-.6l-.3-.17A11,11,0,0,0,82.58,28.63Zm33,16.28-.55,0a21.57,21.57,0,0,1-8.2-1.91c-.41-.19-.81-.41-1.22-.64s-.87-.52-1.31-.81l-.59-.41c-.23-.16-.45-.32-.68-.5s-.6-.47-.91-.73a41.18,41.18,0,0,1-3.63-3.43l-.35-.37-1-1.09-.9-1a34.54,34.54,0,0,1-4.06,3l1.34,1.45,1,1,.38.41h0a43.91,43.91,0,0,0,3.62,3.46c.53.46,1.06.89,1.58,1.28s.87.64,1.3.93c.21.15.42.29.64.42s.53.34.8.49.53.31.79.45.53.29.79.41l.78.37.55.24.56.23.55.2.83.28.84.25h0q.54.15,1.08.27a26.59,26.59,0,0,0,2.67.46c.76.1,1.54.17,2.32.22l1.38.08h.52V45h-.27ZM81.47,5.09c.44,0,.88,0,1.31.09l.21,0,.62.06c.69.08,1.36.18,2,.31l.66.14.65.16.64.18a18.31,18.31,0,0,1,2.53,1c.37.18.74.37,1.12.58a22.67,22.67,0,0,1,2,1.27h0l0,0c.22.15.43.31.65.48s.61.47.92.73a38.77,38.77,0,0,1,3.63,3.44l.35.37,1,1.09,1.28,1.38A40,40,0,0,1,105,13.22c-.47-.52-1-1.07-1.51-1.65l-1-1.06-.38-.4a47.94,47.94,0,0,0-3.63-3.48c-.54-.45-1.06-.88-1.59-1.27a24.57,24.57,0,0,0-2.81-1.88c-.18-.12-.37-.22-.55-.32A24,24,0,0,0,84.05.28a5.9,5.9,0,0,0-.59-.06l-.64,0c-.24,0-.49,0-.74-.05C81.55.08,81,.05,80.45,0v5c.29,0,.59,0,.87,0Zm32,15.87a4.92,4.92,0,0,1-.45-.24,9.42,9.42,0,0,1-.84-.51l-.7-.5a24.28,24.28,0,0,0-4.09,3.12l.1.08c.15.13.3.26.45.37s.42.34.63.5A17.75,17.75,0,0,0,110.39,25c3.11,1.79,6.81,2.5,13.06,2.5v-5c-4.23,0-6.9-.25-9.11-1.14C114,21.24,113.74,21.11,113.45,21ZM83.09,38.34c.69-.12,1.38-.27,2.09-.46a20.31,20.31,0,0,0,3.75-1.43c.59-.29,1.19-.61,1.81-1s1-.6,1.49-1l.4-.27c.71-.51,1.45-1.08,2.21-1.71.49-.4,1-.84,1.51-1.31L97,30.6c-.79-.8-1.61-1.67-2.45-2.6-.33-.36-.64-.71-1-1.05-.23.23-.46.45-.69.65l-.32.29-.16.14h0l-.47.4-.56.48a.39.39,0,0,0-.1.08h0c-.37.31-.73.58-1.08.84a23.44,23.44,0,0,1-2.57,1.66l-.49.26q-.27.15-.54.27c-.26.13-.51.24-.76.34s-.45.19-.68.27h0c-.33.12-.65.23-1,.33l-.92.24a20.7,20.7,0,0,1-2.93.43l-.88,0c-.64,0-1.3,0-2,0l-1.9,0-2.14,0v5l2.08,0,2,0h.7l1.39,0,.82,0,.57,0C81.69,38.55,82.39,38.46,83.09,38.34Zm37.13-27.11c-.83,0-1.63-.05-2.4-.05l-1.27,0-.83.05a2.69,2.69,0,0,0-.4,0q-.64,0-1.29.15l-.51.09c-.33.06-.64.12-1,.2l-.47.13c-.19.05-.37.1-.56.17s-.36.11-.54.18a18.23,18.23,0,0,0-3,1.39c-.29.17-.59.35-.88.55l-.39.26c-.15.09-.29.2-.44.3-.3.21-.61.43-.92.67l-.52.41c-.77.6-1.58,1.3-2.43,2.08-.47.43-1,.9-1.46,1.39s-.76.76-1.15,1.16c.46.5,1,1,1.44,1.58q1,1.14,2,2.1h0l.54-.56.34-.34.33-.33h0l.16-.15a1.14,1.14,0,0,1,.16-.15c.1-.11.2-.21.31-.31.28-.27.55-.53.82-.77h0a33.59,33.59,0,0,1,3-2.5l.46-.32.45-.3h0c.21-.14.41-.26.61-.37l.71-.39c.18-.1.35-.18.52-.26h0c.23-.11.46-.2.68-.29s.56-.2.83-.29l.69-.19.8-.16a11.23,11.23,0,0,1,1.42-.17q.31,0,.63,0h.93c.75,0,1.53,0,2.37.06,1,0,2.18.07,3.4.07v-5C122.29,11.3,121.22,11.26,120.22,11.23Zm-41,4.94h.93q.32,0,.63,0c.47,0,.94.09,1.4.16l.82.17.69.19c.27.09.55.18.83.29l.34.14c.11,0,.23.09.34.15,1.06-.95,2.22-2.16,3.67-3.73l-.64-.35L87.67,13c-.23-.12-.46-.22-.68-.32l-.61-.25-.79-.29c-.26-.09-.51-.17-.77-.24l-.47-.12-1-.21-.6-.1c-.4-.06-.8-.11-1.21-.14l-.29,0h-.42c-.59,0-1.18-.05-1.79-.05s-1.56,0-2.38.05c-1,0-2.07.07-3.24.07v5c1.23,0,2.35,0,3.41-.07C77.69,16.2,78.48,16.17,79.23,16.17Zm22.63,9.37c-.34-.34-.68-.7-1-1.06s-.7-.76-1.06-1.16-.89-1-1.33-1.45h0c-.47-.51-.93-1-1.38-1.45-.09-.09-.17-.18-.26-.26l-.41-.42-.48-.48c-1.24,1.34-2.37,2.54-3.46,3.6l.67.68.36.36.19.2.5.52.86.93,1,1.12c.82.91,1.62,1.76,2.4,2.54.48.49,1,.95,1.42,1.39.22.22.45.42.67.63,1.24-1.35,2.36-2.55,3.43-3.62-.23-.2-.46-.42-.69-.65C102.82,26.52,102.34,26,101.86,25.54Zm17.55,8.19h-1.3l-.64,0-.63,0c-.42,0-.83-.06-1.24-.12a6.17,6.17,0,0,1-.62-.08l-.62-.1-1.1-.24c-.36-.1-.73-.2-1.1-.33l-.43-.15h0c-1.08,1-2.26,2.2-3.75,3.81l0,0,.88.41,0,0,.46.19.39.16.06,0,.42.15c.22.09.45.16.67.23l.8.24.68.17.69.15.7.13c.58.1,1.15.18,1.72.23l.88.08h.06l.83,0q.69,0,1.38,0h.7l2,0,2.08,0v-5l-2.14,0ZM95.82,16.4,97.09,15a39.79,39.79,0,0,0-3.63-3.44L92,13.21l-.12.14L90.59,14.7c-1.35,1.46-2.48,2.66-3.53,3.64a18.77,18.77,0,0,1-1.62,1.37l-.7.5a9.42,9.42,0,0,1-.84.51l-.45.24c-.29.15-.59.28-.89.4a17.94,17.94,0,0,1,5.79,2.42c.21-.16.42-.32.63-.5s.3-.24.45-.37l.1-.08q.25-.21.51-.45c.2-.17.4-.36.6-.55l.37-.36h0c1.07-1,2.19-2.23,3.45-3.59l1-1.15Zm7.85-7.52a20.23,20.23,0,0,1,3.75-2.13,13.08,13.08,0,0,1,1.26-.49,18.61,18.61,0,0,1,2.59-.69l.71-.13c.43-.07.86-.13,1.31-.18l.7-.07c.52-.05,1.06-.08,1.6-.1.28,0,.57,0,.86,0v-5c-1,0-2,.08-3,.17-.79.07-1.56.17-2.32.29-.53.09-1.07.19-1.6.32s-.94.23-1.41.37A24.31,24.31,0,0,0,100,5.36,47.11,47.11,0,0,1,103.67,8.88ZM93.23,41.12l-.59.4c-.42.29-.84.55-1.25.78s-.89.49-1.33.69a17.78,17.78,0,0,1-1.84.75c-.43.15-.85.28-1.28.39s-.87.21-1.31.3-1,.18-1.58.25-1.1.13-1.67.17-1.27.08-1.93.1v5l.49,0,1.51-.08,1.29-.11h.09l.88-.1,1-.15h0l.49-.09.51-.1c.35-.07.71-.14,1.06-.23l.06,0,.56-.15c.56-.15,1.11-.33,1.67-.53l.55-.2c.37-.15.74-.3,1.11-.47l.78-.37c.27-.13.53-.27.79-.41l.78-.44.81-.5c.22-.13.43-.27.64-.42.43-.29.87-.6,1.3-.93A48.78,48.78,0,0,1,93.23,41.12Zm8.84-8.59-.68.74-.68.73c-.28.32-.58.64-.89,1a37.33,37.33,0,0,0,3.62,3.44c.47-.5.92-1,1.33-1.45l.3-.32,1.09-1.19.51-.55,1-1c.46-.49.9-.94,1.31-1.35l.35-.35.46-.44c.57-.54,1.11-1,1.64-1.42l.07-.05a3.43,3.43,0,0,1,.33-.24l.32-.23c.2-.14.4-.26.6-.39l.53-.29.37-.19.72-.32a18,18,0,0,1-5.78-2.42q-.8.6-1.59,1.32c-.48.42-1,.88-1.45,1.38h0c-.67.66-1.36,1.38-2.1,2.18l-1,1Z"/><rect class="cls-1" x="73.45" width="5" height="5"/><rect class="cls-2" x="118.45" width="5" height="5"/><rect class="cls-3" x="73.45" y="45" width="5" height="5"/><rect class="cls-4" x="118.45" y="45" width="5" height="5"/></svg>